<svg width="50" height="68" viewBox="0 0 50 68" fill="none" xmlns="http://www.w3.org/2000/svg">
<path d="M0 66.3728L24.34 10.9481H24.9265L49.2664 66.3728H36.9498L21.4074 27.3944L29.1053 22.178L10.4838 66.3728H0ZM16.6421 47.101H32.8443L36.5832 55.94H13.343L16.6421 47.101Z" fill="#BF1304"/>
<path d="M6.84229 66.3728L25.0973 24.6332H25.5371L43.7921 66.3728H34.5546L22.8979 37.0187L28.6713 33.0902L14.7051 66.3728H6.84229ZM19.3238 51.8594H31.4755L34.2797 58.5159H16.8495L19.3238 51.8594Z" fill="#F27405"/>
<path d="M12.3164 66.3729L24.8184 39.0026H25.1769L37.6339 66.3729H32.3016L18.8138 60.3787L27.731 45.8342L18.0969 66.3729H12.3164ZM20.1134 60.9958H30.0163L32.3016 66.3729H18.0969L20.1134 60.9958Z" fill="#FBD4B1"/>
<path d="M19.1592 66.3728L24.9033 48.5822H25.068L30.7915 66.3728H28.3416L22.1445 62.4766L26.2416 53.0227L21.8151 66.3728H19.1592ZM22.7416 62.8777H27.2916L28.3416 66.3728H21.8151L22.7416 62.8777Z" fill="#FBD4B1"/>
<path fill-rule="evenodd" clip-rule="evenodd" d="M48.9949 66.6183L20.1099 0.438783L21.1152 0L50.0002 66.1795L48.9949 66.6183Z" fill="black"/>
<path fill-rule="evenodd" clip-rule="evenodd" d="M0.00034436 66.6183L28.8853 0.438781L29.8906 0.877563L1.00566 67.057L0.00034436 66.6183Z" fill="black"/>
<path fill-rule="evenodd" clip-rule="evenodd" d="M48.9949 66.6183L20.1099 0.438783L21.1152 0L50.0002 66.1795L48.9949 66.6183Z" fill="black"/>
</svg>
